<svg xmlns="http://www.w3.org/2000/svg" viewBox="0 0 1000 282"><defs><style>.abcd351b-7fc2-49e6-927b-bce776d4ae9a{fill:#121230;}</style></defs><title>codebots-logo-2018-master</title><g id="a5edc491-a38d-4e76-a416-6cbdf4b6c936" data-name="Layer 2"><path class="abcd351b-7fc2-49e6-927b-bce776d4ae9a" d="M109,190.75l4.51-7.79a7.78,7.78,0,0,0,0-7.83l-4.67-8a23.32,23.32,0,0,1,0-23.59l13.67-23.34a23.33,23.33,0,0,1,20.14-11.55H152a7.79,7.79,0,0,0,6.73-3.88l4.5-7.78a7.79,7.79,0,0,0-6.74-11.68H138.05a38.91,38.91,0,0,0-33.6,19.3L86.3,135.75a38.88,38.88,0,0,0,0,39.2l9.23,15.82A7.77,7.77,0,0,0,109,190.75Z"/><path class="abcd351b-7fc2-49e6-927b-bce776d4ae9a" d="M214.15,102.34l16.27-28.06a11.74,11.74,0,0,0-3.78-15.75l0,0a11.75,11.75,0,0,0-16.56,4L194,90.3h0l-12.27,21.29h0l-50.46,87.5h0L122.71,214h0a7.58,7.58,0,0,0,6.57,11.37h45.78a38.91,38.91,0,0,0,33.6-19.3L226.81,175a38.88,38.88,0,0,0,0-39.2l-12.64-21.67A11.68,11.68,0,0,1,214.15,102.34Zm-9.83,64.81-13.66,23.34A23.35,23.35,0,0,1,170.51,202h-7.39a3.89,3.89,0,0,1-3.37-5.84l34.16-58.92a3.89,3.89,0,0,1,6.72,0l3.69,6.31A23.32,23.32,0,0,1,204.32,167.15Z"/><path class="abcd351b-7fc2-49e6-927b-bce776d4ae9a" d="M281.72,155.59c0-21.2,16-39.25,41.75-39.25a38.92,38.92,0,0,1,23.26,7.18c2.72,1.85,3,4.56,1.09,7.28l-2.71,3.37c-2,2.72-4.36,2.72-7.29,1a29.51,29.51,0,0,0-14.35-3.8c-15.22,0-24.47,10.87-24.47,24.24s9.25,24.24,24.47,24.24a29.51,29.51,0,0,0,14.35-3.8c2.93-1.74,5.33-1.74,7.29,1l2.71,3.37c2,2.83,1.85,5.22-.54,7a38.93,38.93,0,0,1-23.81,7.5C297.7,194.84,281.72,176.79,281.72,155.59Z"/><path class="abcd351b-7fc2-49e6-927b-bce776d4ae9a" d="M361.42,155.59c0-21.42,16.52-39.25,40.34-39.25s40.34,17.83,40.34,39.25-16.53,39.25-40.34,39.25S361.42,177,361.42,155.59Zm63.39,0c0-13.48-9.57-24.24-23.05-24.24s-22.94,10.76-22.94,24.24,9.46,24.24,22.94,24.24S424.81,169.07,424.81,155.59Z"/><path class="abcd351b-7fc2-49e6-927b-bce776d4ae9a" d="M461,188.43V122.75c0-3.36,1.94-5.21,5.32-5.21h25.11c23.16,0,38.93,17.06,38.93,38.05s-15.77,38-38.93,38H466.35C463,193.64,461,191.79,461,188.43Zm28.69-9.35c14.47,0,23.28-10,23.28-23.49s-8.81-23.49-23.28-23.49H478.31v47Z"/><path class="abcd351b-7fc2-49e6-927b-bce776d4ae9a" d="M566.49,132.1v17.18h24.58c3.36,0,5.21,1.85,5.21,5.22v2.94c0,3.37-1.85,5.33-5.21,5.33H566.49v16.31h29c3.38,0,5.22,1.84,5.22,5.21v4.14c0,3.36-1.84,5.21-5.22,5.21h-41c-3.37,0-5.32-1.85-5.32-5.21V122.75c0-3.36,1.95-5.21,5.32-5.21h41c3.38,0,5.22,1.85,5.22,5.21v4.14c0,3.36-1.84,5.21-5.22,5.21Z"/><path class="abcd351b-7fc2-49e6-927b-bce776d4ae9a" d="M681.73,172.12c0,13-10.75,21.52-27.07,21.52H626.51c-3.38,0-5.33-1.85-5.33-5.21V122.75c0-3.36,2-5.21,5.33-5.21h25c15.44,0,26.75,7.83,26.75,20.87,0,6.31-3.37,12.83-12.18,15.77A17.92,17.92,0,0,1,681.73,172.12Zm-43.27-40.89v18.49h9.14c9.78,0,13.81-4.68,13.81-9.57,0-5.65-4.79-8.92-11.2-8.92Zm26.31,39.58c0-5-4.24-9.89-14.35-9.89h-12v18.81H654C660.86,179.73,664.77,175.81,664.77,170.81Z"/><path class="abcd351b-7fc2-49e6-927b-bce776d4ae9a" d="M695.89,155.59c0-21.42,16.52-39.25,40.33-39.25s40.34,17.83,40.34,39.25S760,194.84,736.22,194.84,695.89,177,695.89,155.59Zm63.39,0c0-13.48-9.58-24.24-23.06-24.24s-22.94,10.76-22.94,24.24,9.46,24.24,22.94,24.24S759.28,169.07,759.28,155.59Z"/><path class="abcd351b-7fc2-49e6-927b-bce776d4ae9a" d="M849,122.75v4.14c0,3.36-2,5.21-5.32,5.21H826v56.33c0,3.36-1.85,5.21-5.21,5.21h-6.53c-3.37,0-5.22-1.85-5.22-5.21V132.1h-17.4c-3.37,0-5.22-1.85-5.22-5.21v-4.14c0-3.36,1.85-5.21,5.22-5.21h52C847,117.54,849,119.39,849,122.75Z"/><path class="abcd351b-7fc2-49e6-927b-bce776d4ae9a" d="M861.48,178.42c-1.41-3.26.33-5.54,3.7-6.41l4.68-1.09c3-.76,4.67.54,6.41,3.37,2.51,4,7.28,6.74,13.7,6.74,7.39,0,12.28-3.26,12.28-8.26,0-3.81-2.93-6.85-8.69-8.81l-9.89-3.59c-9-2.93-20.12-9.67-20.23-21.42,0-13.91,12.07-22.61,27-22.61,11.85,0,20.23,5.22,24.36,13.91,1.63,3.16.11,5.66-3.15,6.64l-4.35,1.19c-3,.87-4.9-.32-6.74-2.93-2-3.26-5.33-5-9.89-5-5.44,0-10.12,2.72-10.12,7.72,0,2.71,1.2,5.65,7.93,8.15l9.9,3.59c14.9,5,20.44,12.83,20.66,22.4,0,14.89-12.72,22.83-28.92,22.83C875.84,194.84,865.5,188.54,861.48,178.42Z"/></g></svg>